<svg xmlns="http://www.w3.org/2000/svg" xmlns:xlink="http://www.w3.org/1999/xlink" width="500" zoomAndPan="magnify" viewBox="0 0 375 374.999991" height="500" preserveAspectRatio="xMidYMid meet" version="1.0">
<defs>
<clipPath id="68ba6d588b"><path d="M 74 72.015625 L 133 72.015625 L 133 240 L 74 240 Z M 74 72.015625 " clip-rule="nonzero"/></clipPath><clipPath id="a2eab1e46d"><path d="M 126 72.015625 L 301 72.015625 L 301 228 L 126 228 Z M 126 72.015625 " clip-rule="nonzero"/></clipPath><clipPath id="11c6bb78de">
<path d="M 109 239.335938 L 312.230469 239.335938 L 312.230469 303.007812 L 109 303.007812 Z M 109 239.335938 " clip-rule="nonzero"/>
</clipPath><clipPath id="68291a3c4e"><path d="M 62.480469 100 L 75 100 L 75 228 L 62.480469 228 Z M 62.480469 100 " clip-rule="nonzero"/></clipPath><clipPath id="678fbf43aa"><path d="M 62.691406 239.335938 L 109.300781 239.335938 L 109.300781 303.007812 L 62.691406 303.007812 Z M 62.691406 239.335938 " clip-rule="nonzero"/></clipPath></defs><path fill="#918267" d="M 277.484375 216.394531 L 277.480469 77.800781 L 289.097656 77.792969 L 289.105469 216.394531 L 277.484375 216.394531 " fill-opacity="1" fill-rule="nonzero"/><path fill="#918267" d="M 289.097656 77.800781 L 289.097656 216.386719 L 277.484375 216.386719 L 277.484375 77.800781 L 289.097656 77.800781 " fill-opacity="1" fill-rule="nonzero"/><path fill="#3e3b53" d="M 143.960938 89.347656 L 143.96875 89.347656 L 143.96875 216.386719 Z M 143.960938 89.347656 " fill-opacity="1" fill-rule="nonzero"/><path fill="#3e3b53" d="M 277.484375 89.339844 L 277.484375 89.347656 L 143.96875 89.347656 Z M 277.484375 89.339844 " fill-opacity="1" fill-rule="nonzero"/><path fill="#3e3b53" d="M 277.492188 216.398438 L 143.96875 216.398438 L 143.96875 89.347656 L 277.484375 89.347656 L 277.492188 216.398438 " fill-opacity="1" fill-rule="nonzero"/><path fill="#918267" d="M 236.855469 268.367188 L 236.847656 256.8125 L 289.097656 256.804688 L 289.105469 268.367188 L 236.855469 268.367188 " fill-opacity="1" fill-rule="nonzero"/><path fill="#918267" d="M 289.097656 256.8125 L 289.097656 268.355469 L 236.855469 268.355469 L 236.855469 256.8125 L 289.097656 256.8125 " fill-opacity="1" fill-rule="nonzero"/><path fill="#918267" d="M 225.242188 285.691406 L 225.238281 274.132812 L 289.097656 274.121094 L 289.105469 285.691406 L 225.242188 285.691406 " fill-opacity="1" fill-rule="nonzero"/><path fill="#918267" d="M 289.097656 274.132812 L 289.097656 285.683594 L 225.242188 285.683594 L 225.242188 274.132812 L 289.097656 274.132812 " fill-opacity="1" fill-rule="nonzero"/><path fill="#918267" d="M 178.804688 285.691406 L 178.796875 274.132812 L 190.417969 274.121094 L 190.421875 285.691406 L 178.804688 285.691406 " fill-opacity="1" fill-rule="nonzero"/><path fill="#918267" d="M 190.417969 274.132812 L 190.417969 285.683594 L 178.804688 285.683594 L 178.804688 274.132812 L 190.417969 274.132812 " fill-opacity="1" fill-rule="nonzero"/><path fill="#918267" d="M 178.804688 262.589844 L 178.796875 251.03125 L 190.417969 251.027344 L 190.421875 262.589844 L 178.804688 262.589844 " fill-opacity="1" fill-rule="nonzero"/><path fill="#918267" d="M 190.417969 251.03125 L 190.417969 262.585938 L 178.804688 262.585938 L 178.804688 251.03125 L 190.417969 251.03125 " fill-opacity="1" fill-rule="nonzero"/><path fill="#918267" d="M 167.191406 274.136719 L 167.1875 262.585938 L 178.804688 262.574219 L 178.808594 274.136719 L 167.191406 274.136719 " fill-opacity="1" fill-rule="nonzero"/><path fill="#918267" d="M 178.804688 262.585938 L 178.804688 274.132812 L 167.191406 274.132812 L 167.191406 262.585938 L 178.804688 262.585938 " fill-opacity="1" fill-rule="nonzero"/><path fill="#918267" d="M 155.578125 285.691406 L 155.574219 274.132812 L 167.191406 274.121094 L 167.199219 285.691406 L 155.578125 285.691406 " fill-opacity="1" fill-rule="nonzero"/><path fill="#918267" d="M 167.191406 274.132812 L 167.191406 285.683594 L 155.578125 285.683594 L 155.578125 274.132812 L 167.191406 274.132812 " fill-opacity="1" fill-rule="nonzero"/><path fill="#918267" d="M 155.578125 262.589844 L 155.574219 251.03125 L 167.191406 251.027344 L 167.199219 262.589844 L 155.578125 262.589844 " fill-opacity="1" fill-rule="nonzero"/><path fill="#918267" d="M 167.191406 251.03125 L 167.191406 262.585938 L 155.578125 262.585938 L 155.578125 251.03125 L 167.191406 251.03125 " fill-opacity="1" fill-rule="nonzero"/><path fill="#4ec861" d="M 155.578125 135.554688 L 155.574219 129.773438 L 161.390625 129.761719 L 161.394531 135.554688 L 155.578125 135.554688 " fill-opacity="1" fill-rule="nonzero"/><path fill="#4ec861" d="M 161.390625 135.542969 L 155.578125 135.542969 L 155.578125 129.773438 L 161.390625 129.773438 L 161.390625 135.542969 " fill-opacity="1" fill-rule="nonzero"/><path fill="#4ec861" d="M 161.390625 124 L 161.382812 118.21875 L 196.21875 118.214844 L 196.226562 124 L 161.390625 124 " fill-opacity="1" fill-rule="nonzero"/><path fill="#4ec861" d="M 161.390625 123.992188 L 161.390625 118.21875 L 196.21875 118.21875 L 196.21875 123.992188 L 161.390625 123.992188 " fill-opacity="1" fill-rule="nonzero"/><path fill="#4ec861" d="M 167.191406 135.554688 L 167.1875 129.773438 L 178.804688 129.761719 L 178.808594 135.554688 L 167.191406 135.554688 " fill-opacity="1" fill-rule="nonzero"/><path fill="#4ec861" d="M 178.804688 129.773438 L 178.804688 135.542969 L 167.191406 135.542969 L 167.191406 129.773438 L 178.804688 129.773438 " fill-opacity="1" fill-rule="nonzero"/><path fill="#4ec861" d="M 196.21875 135.554688 L 196.210938 129.773438 L 236.855469 129.761719 L 236.863281 135.554688 L 196.21875 135.554688 " fill-opacity="1" fill-rule="nonzero"/><path fill="#4ec861" d="M 196.21875 129.773438 L 236.855469 129.773438 L 236.855469 135.542969 L 196.21875 135.542969 L 196.21875 129.773438 " fill-opacity="1" fill-rule="nonzero"/><path fill="#4ec861" d="M 207.828125 152.878906 L 207.824219 147.089844 L 167.191406 147.101562 L 167.1875 141.320312 L 213.632812 141.308594 L 213.640625 147.089844 L 248.464844 147.085938 L 248.472656 152.878906 L 207.828125 152.878906 " fill-opacity="1" fill-rule="nonzero"/><path fill="#4ec861" d="M 167.191406 147.089844 L 167.191406 141.320312 L 213.632812 141.320312 L 213.632812 147.089844 L 248.464844 147.089844 L 248.464844 152.871094 L 207.828125 152.871094 L 207.828125 147.089844 L 167.191406 147.089844 " fill-opacity="1" fill-rule="nonzero"/><path fill="#4ec861" d="M 219.441406 170.195312 L 219.433594 164.417969 L 225.242188 164.410156 L 225.25 170.195312 L 219.441406 170.195312 " fill-opacity="1" fill-rule="nonzero"/><path fill="#4ec861" d="M 219.441406 164.417969 L 225.242188 164.417969 L 225.242188 170.1875 L 219.441406 170.1875 L 219.441406 164.417969 " fill-opacity="1" fill-rule="nonzero"/><path fill="#4ec861" d="M 225.242188 164.425781 L 225.238281 158.644531 L 231.046875 158.636719 L 231.054688 164.425781 L 225.242188 164.425781 " fill-opacity="1" fill-rule="nonzero"/><path fill="#4ec861" d="M 231.046875 158.644531 L 231.046875 164.417969 L 225.242188 164.417969 L 225.242188 158.644531 L 231.046875 158.644531 " fill-opacity="1" fill-rule="nonzero"/><path fill="#4ec861" d="M 236.855469 164.425781 L 236.847656 158.644531 L 242.65625 158.636719 L 242.664062 164.425781 L 236.855469 164.425781 " fill-opacity="1" fill-rule="nonzero"/><path fill="#4ec861" d="M 242.65625 158.644531 L 242.65625 164.417969 L 236.855469 164.417969 L 236.855469 158.644531 L 242.65625 158.644531 " fill-opacity="1" fill-rule="nonzero"/><path fill="#4ec861" d="M 242.65625 170.195312 L 242.652344 164.417969 L 248.464844 164.410156 L 248.472656 170.195312 L 242.65625 170.195312 " fill-opacity="1" fill-rule="nonzero"/><path fill="#4ec861" d="M 242.65625 164.417969 L 248.464844 164.417969 L 248.464844 170.1875 L 242.65625 170.1875 L 242.65625 164.417969 " fill-opacity="1" fill-rule="nonzero"/><path fill="#4ec861" d="M 184.605469 135.554688 L 184.601562 129.773438 L 190.417969 129.761719 L 190.421875 135.554688 L 184.605469 135.554688 " fill-opacity="1" fill-rule="nonzero"/><path fill="#4ec861" d="M 184.605469 129.773438 L 190.417969 129.773438 L 190.417969 135.542969 L 184.605469 135.542969 L 184.605469 129.773438 " fill-opacity="1" fill-rule="nonzero"/><path fill="#4ec861" d="M 248.464844 135.554688 L 248.457031 129.773438 L 254.269531 129.761719 L 254.277344 135.554688 L 248.464844 135.554688 " fill-opacity="1" fill-rule="nonzero"/><path fill="#4ec861" d="M 248.464844 129.773438 L 254.269531 129.773438 L 254.269531 135.542969 L 248.464844 135.542969 L 248.464844 129.773438 " fill-opacity="1" fill-rule="nonzero"/><path fill="#4ec861" d="M 213.632812 124 L 213.625 118.21875 L 260.070312 118.214844 L 260.082031 124 L 213.632812 124 " fill-opacity="1" fill-rule="nonzero"/><path fill="#4ec861" d="M 260.070312 123.992188 L 213.632812 123.992188 L 213.632812 118.21875 L 260.070312 118.21875 L 260.070312 123.992188 " fill-opacity="1" fill-rule="nonzero"/><path fill="#4ec861" d="M 265.878906 227.941406 L 265.875 216.386719 L 277.484375 216.378906 L 277.496094 227.941406 L 265.878906 227.941406 " fill-opacity="1" fill-rule="nonzero"/><path fill="#4ec861" d="M 277.484375 216.386719 L 277.484375 227.933594 L 265.878906 227.933594 L 265.878906 216.386719 L 277.484375 216.386719 " fill-opacity="1" fill-rule="nonzero"/><path fill="#4ec861" d="M 202.019531 164.425781 L 202.015625 158.644531 L 207.828125 158.636719 L 207.835938 164.425781 L 202.019531 164.425781 " fill-opacity="1" fill-rule="nonzero"/><path fill="#4ec861" d="M 207.828125 158.644531 L 207.828125 164.417969 L 202.019531 164.417969 L 202.019531 158.644531 L 207.828125 158.644531 " fill-opacity="1" fill-rule="nonzero"/><path fill="#4ec861" d="M 161.390625 164.425781 L 161.382812 158.644531 L 190.417969 158.636719 L 190.421875 164.425781 L 161.390625 164.425781 " fill-opacity="1" fill-rule="nonzero"/><path fill="#4ec861" d="M 190.417969 158.644531 L 190.417969 164.417969 L 161.390625 164.417969 L 161.390625 158.644531 L 190.417969 158.644531 " fill-opacity="1" fill-rule="nonzero"/><path fill="#4ec861" d="M 207.828125 170.195312 L 207.824219 164.417969 L 213.632812 164.410156 L 213.640625 170.195312 L 207.828125 170.195312 " fill-opacity="1" fill-rule="nonzero"/><path fill="#4ec861" d="M 207.828125 164.417969 L 213.632812 164.417969 L 213.632812 170.1875 L 207.828125 170.1875 L 207.828125 164.417969 " fill-opacity="1" fill-rule="nonzero"/><path fill="#4ec861" d="M 248.464844 164.425781 L 248.457031 158.644531 L 254.269531 158.636719 L 254.277344 164.425781 L 248.464844 164.425781 " fill-opacity="1" fill-rule="nonzero"/><path fill="#4ec861" d="M 248.464844 158.644531 L 254.269531 158.644531 L 254.269531 164.417969 L 248.464844 164.417969 L 248.464844 158.644531 " fill-opacity="1" fill-rule="nonzero"/><path fill="#4ec861" d="M 260.070312 152.878906 L 260.066406 147.089844 L 265.878906 147.085938 L 265.886719 152.878906 L 260.070312 152.878906 " fill-opacity="1" fill-rule="nonzero"/><path fill="#4ec861" d="M 265.878906 152.871094 L 260.070312 152.871094 L 260.070312 147.089844 L 265.878906 147.089844 L 265.878906 152.871094 " fill-opacity="1" fill-rule="nonzero"/><path fill="#4ec861" d="M 231.046875 170.195312 L 231.039062 164.417969 L 236.855469 164.410156 L 236.863281 170.195312 L 231.046875 170.195312 " fill-opacity="1" fill-rule="nonzero"/><path fill="#4ec861" d="M 231.046875 164.417969 L 236.855469 164.417969 L 236.855469 170.1875 L 231.046875 170.1875 L 231.046875 164.417969 " fill-opacity="1" fill-rule="nonzero"/><path fill="#4ec861" d="M 213.632812 164.425781 L 213.625 158.644531 L 219.441406 158.636719 L 219.449219 164.425781 L 213.632812 164.425781 " fill-opacity="1" fill-rule="nonzero"/><path fill="#4ec861" d="M 219.441406 158.644531 L 219.441406 164.417969 L 213.632812 164.417969 L 213.632812 158.644531 L 219.441406 158.644531 " fill-opacity="1" fill-rule="nonzero"/><path fill="#918267" d="M 143.96875 274.136719 L 143.960938 262.585938 L 155.578125 262.574219 L 155.589844 274.136719 L 143.96875 274.136719 " fill-opacity="1" fill-rule="nonzero"/><path fill="#918267" d="M 155.578125 262.585938 L 155.578125 274.132812 L 143.96875 274.132812 L 143.96875 262.585938 L 155.578125 262.585938 " fill-opacity="1" fill-rule="nonzero"/><path fill="#918267" d="M 143.96875 89.355469 L 143.960938 77.800781 L 277.484375 77.792969 L 277.496094 89.355469 L 143.96875 89.355469 " fill-opacity="1" fill-rule="nonzero"/><path fill="#918267" d="M 277.484375 77.800781 L 277.484375 89.347656 L 143.96875 89.347656 L 143.96875 77.800781 L 277.484375 77.800781 " fill-opacity="1" fill-rule="nonzero"/><path fill="#918267" d="M 132.363281 285.691406 L 132.355469 274.132812 L 143.96875 274.121094 L 143.976562 285.691406 L 132.363281 285.691406 " fill-opacity="1" fill-rule="nonzero"/><path fill="#918267" d="M 143.96875 274.132812 L 143.96875 285.683594 L 132.363281 285.683594 L 132.363281 274.132812 L 143.96875 274.132812 " fill-opacity="1" fill-rule="nonzero"/><path fill="#918267" d="M 132.363281 262.589844 L 132.355469 251.03125 L 143.96875 251.027344 L 143.976562 262.589844 L 132.363281 262.589844 " fill-opacity="1" fill-rule="nonzero"/><path fill="#918267" d="M 143.96875 251.03125 L 143.96875 262.585938 L 132.363281 262.585938 L 132.363281 251.03125 L 143.96875 251.03125 " fill-opacity="1" fill-rule="nonzero"/><path fill="#3e3b53" d="M 132.363281 239.492188 L 132.355469 227.933594 L 283.292969 227.925781 L 283.300781 239.492188 L 132.363281 239.492188 " fill-opacity="1" fill-rule="nonzero"/><path fill="#3e3b53" d="M 283.292969 227.933594 L 283.292969 239.484375 L 132.363281 239.484375 L 132.363281 227.933594 L 283.292969 227.933594 " fill-opacity="1" fill-rule="nonzero"/><path fill="#f5e5c1" d="M 132.363281 216.394531 L 132.355469 77.800781 L 143.96875 77.792969 L 143.976562 216.394531 L 132.363281 216.394531 " fill-opacity="1" fill-rule="nonzero"/><path fill="#f5e5c1" d="M 143.96875 77.800781 L 143.96875 216.386719 L 132.363281 216.386719 L 132.363281 77.800781 L 143.96875 77.800781 " fill-opacity="1" fill-rule="nonzero"/><g clip-path="url(#68ba6d588b)"><path fill="#918267" d="M 80.113281 239.492188 L 80.109375 227.933594 L 74.3125 227.941406 L 74.304688 100.894531 L 80.113281 100.886719 L 80.109375 72.023438 L 126.554688 72.015625 L 126.5625 227.933594 L 132.363281 227.925781 L 132.371094 239.492188 L 80.113281 239.492188 " fill-opacity="1" fill-rule="nonzero"/><path fill="#918267" d="M 132.363281 227.933594 L 132.363281 239.484375 L 80.113281 239.484375 L 80.113281 227.933594 L 74.3125 227.933594 L 74.3125 100.894531 L 80.113281 100.894531 L 80.113281 72.023438 L 126.554688 72.023438 L 126.554688 227.933594 L 132.363281 227.933594 " fill-opacity="1" fill-rule="nonzero"/></g><g clip-path="url(#a2eab1e46d)"><path fill="#d2c0a1" d="M 277.484375 227.941406 L 277.480469 216.386719 L 289.097656 216.378906 L 289.089844 77.800781 L 132.363281 77.808594 L 132.371094 216.386719 L 265.878906 216.378906 L 265.886719 227.933594 L 126.554688 227.941406 L 126.546875 72.023438 L 300.707031 72.015625 L 300.71875 227.941406 L 277.484375 227.941406 " fill-opacity="1" fill-rule="nonzero"/><path fill="#d2c0a1" d="M 300.707031 72.023438 L 300.707031 227.933594 L 277.484375 227.933594 L 277.484375 216.386719 L 289.097656 216.386719 L 289.097656 77.800781 L 132.363281 77.800781 L 132.363281 216.386719 L 265.878906 216.386719 L 265.878906 227.933594 L 126.554688 227.933594 L 126.554688 72.023438 L 300.707031 72.023438 " fill-opacity="1" fill-rule="nonzero"/></g><g clip-path="url(#11c6bb78de)"><path fill="#d2c0a1" d="M 190.417969 262.574219 L 190.40625 251.03125 L 178.804688 251.039062 L 178.808594 262.574219 Z M 132.363281 251.039062 L 132.371094 262.585938 L 143.96875 262.574219 L 143.960938 251.03125 Z M 236.863281 268.355469 L 289.097656 268.351562 L 289.089844 256.8125 L 236.863281 256.820312 Z M 132.371094 285.683594 L 190.417969 285.675781 L 190.40625 274.132812 L 178.804688 274.136719 L 178.796875 262.585938 L 167.191406 262.589844 L 167.1875 251.03125 L 155.578125 251.039062 L 155.589844 262.585938 L 143.96875 262.589844 L 143.976562 274.132812 L 132.371094 274.136719 Z M 225.25 285.683594 L 289.097656 285.675781 L 289.089844 274.132812 L 225.25 274.136719 Z M 109.140625 303.007812 L 109.132812 239.484375 L 312.320312 239.480469 L 312.328125 303.007812 L 109.140625 303.007812 " fill-opacity="1" fill-rule="nonzero"/><path fill="#d2c0a1" d="M 289.097656 268.355469 L 236.855469 268.355469 L 236.855469 256.8125 L 289.097656 256.8125 Z M 289.097656 285.683594 L 225.242188 285.683594 L 225.242188 274.132812 L 289.097656 274.132812 Z M 190.417969 262.585938 L 178.804688 262.585938 L 178.804688 274.132812 L 190.417969 274.132812 L 190.417969 285.683594 L 132.363281 285.683594 L 132.363281 274.132812 L 143.96875 274.132812 L 143.96875 262.585938 L 132.363281 262.585938 L 132.363281 251.03125 L 143.96875 251.03125 L 143.96875 262.585938 L 155.578125 262.585938 L 155.578125 251.03125 L 167.191406 251.03125 L 167.191406 262.585938 L 178.804688 262.585938 L 178.804688 251.03125 L 190.417969 251.03125 Z M 109.140625 239.484375 L 109.140625 303.003906 L 312.320312 303.003906 L 312.320312 239.484375 L 109.140625 239.484375 " fill-opacity="1" fill-rule="nonzero"/></g><path fill="#d2c0a1" d="M 167.191406 285.691406 L 167.1875 274.132812 L 178.804688 274.121094 L 178.808594 285.691406 L 167.191406 285.691406 " fill-opacity="1" fill-rule="nonzero"/><path fill="#d2c0a1" d="M 178.804688 274.132812 L 178.804688 285.683594 L 167.191406 285.683594 L 167.191406 274.132812 L 178.804688 274.132812 " fill-opacity="1" fill-rule="nonzero"/><path fill="#d2c0a1" d="M 143.96875 285.691406 L 143.960938 274.132812 L 155.578125 274.121094 L 155.589844 285.691406 L 143.96875 285.691406 " fill-opacity="1" fill-rule="nonzero"/><path fill="#d2c0a1" d="M 155.578125 274.132812 L 155.578125 285.683594 L 143.96875 285.683594 L 143.96875 274.132812 L 155.578125 274.132812 " fill-opacity="1" fill-rule="nonzero"/><path fill="#d2c0a1" d="M 155.578125 274.136719 L 155.574219 262.585938 L 167.191406 262.574219 L 167.199219 274.136719 L 155.578125 274.136719 " fill-opacity="1" fill-rule="nonzero"/><path fill="#d2c0a1" d="M 167.191406 262.585938 L 167.191406 274.132812 L 155.578125 274.132812 L 155.578125 262.585938 L 167.191406 262.585938 " fill-opacity="1" fill-rule="nonzero"/><g clip-path="url(#68291a3c4e)"><path fill="#918267" d="M 68.503906 227.941406 L 68.496094 216.386719 L 62.703125 216.394531 L 62.691406 112.449219 L 68.503906 112.4375 L 68.496094 100.894531 L 74.3125 100.886719 L 74.320312 227.941406 L 68.503906 227.941406 " fill-opacity="1" fill-rule="nonzero"/><path fill="#918267" d="M 74.3125 100.894531 L 74.3125 227.933594 L 68.503906 227.933594 L 68.503906 216.386719 L 62.703125 216.386719 L 62.703125 112.449219 L 68.503906 112.449219 L 68.503906 100.894531 L 74.3125 100.894531 " fill-opacity="1" fill-rule="nonzero"/></g><path fill="#3e3b53" d="M 74.3125 227.941406 L 74.304688 100.894531 L 80.113281 100.886719 L 80.121094 227.941406 L 74.3125 227.941406 " fill-opacity="1" fill-rule="nonzero"/><path fill="#3e3b53" d="M 80.113281 227.933594 L 74.3125 227.933594 L 74.3125 100.894531 L 80.113281 100.894531 L 80.113281 227.933594 " fill-opacity="1" fill-rule="nonzero"/><g clip-path="url(#678fbf43aa)"><path fill="#3e3b53" d="M 62.703125 303.007812 L 62.691406 239.484375 L 109.140625 239.480469 L 109.148438 303.007812 L 62.703125 303.007812 " fill-opacity="1" fill-rule="nonzero"/><path fill="#3e3b53" d="M 109.140625 239.484375 L 109.140625 303.003906 L 62.703125 303.003906 L 62.703125 239.484375 L 109.140625 239.484375 " fill-opacity="1" fill-rule="nonzero"/></g><path fill="#3e3b53" d="M 114.945312 178.851562 L 114.953125 187.523438 L 94.628906 187.523438 L 94.628906 187.515625 L 94.621094 178.851562 L 94.628906 178.851562 L 114.945312 178.84375 L 114.945312 178.851562 " fill-opacity="1" fill-rule="nonzero"/><path fill="#3e3b53" d="M 114.945312 161.53125 L 114.953125 170.195312 L 94.628906 170.195312 L 94.628906 170.1875 L 94.621094 161.53125 L 94.628906 161.53125 L 114.945312 161.523438 L 114.945312 161.53125 " fill-opacity="1" fill-rule="nonzero"/><path fill="#3e3b53" d="M 114.945312 144.203125 L 114.953125 152.875 L 94.628906 152.875 L 94.628906 152.867188 L 94.621094 144.203125 L 94.628906 144.203125 L 114.945312 144.195312 L 114.945312 144.203125 " fill-opacity="1" fill-rule="nonzero"/><path fill="#3e3b53" d="M 94.628906 135.546875 L 94.621094 126.882812 L 94.628906 126.882812 L 114.945312 126.875 L 114.945312 126.882812 L 114.953125 135.554688 L 94.628906 135.554688 L 94.628906 135.546875 " fill-opacity="1" fill-rule="nonzero"/></svg>